<svg xmlns="http://www.w3.org/2000/svg" version="1.1" xmlns:xlink="http://www.w3.org/1999/xlink" xmlns:svgjs="http://svgjs.dev/svgjs" width="1776" height="2000" preserveAspectRatio="none" viewBox="0 0 1776 2000"><g mask="url(&quot;#SvgjsMask1065&quot;)" fill="none"><rect width="1776" height="2000" x="0" y="0" fill="rgba(218, 235, 253, 1)"></rect><path d="M0,912.465C168.484,945.901,325.661,824.289,473.075,736.119C624.787,645.379,803.078,560.616,865.065,395.062C926.403,231.242,822.717,58.311,791.296,-113.771C761.279,-278.162,805.778,-478.136,684.609,-593.217C562.98,-708.735,360.666,-633.074,198.673,-676.62C42.034,-718.726,-88.551,-874.766,-247.778,-843.853C-407.685,-812.807,-517.346,-660.69,-601.561,-521.256C-677.498,-395.528,-663.798,-243.299,-696.926,-100.203C-733.907,59.533,-880.243,221.827,-807.625,368.83C-734.532,516.793,-502.959,477.436,-366.054,569.591C-224.496,664.878,-167.377,879.248,0,912.465" fill="#bbdafb"></path><path d="M1776 2893.192C1940.709 2890.093 2064.822 2754.055 2201.478 2662.057 2335.016 2572.158 2493.7380000000003 2504.605 2566.5119999999997 2361.015 2640.3379999999997 2215.35 2605.091 2045.078 2596.834 1881.982 2587.7290000000003 1702.149 2651.359 1477.471 2515.7799999999997 1358.9769999999999 2376.141 1236.935 2153.299 1370.335 1971.205 1335.192 1814.356 1304.921 1687.289 1131.529 1532.032 1169.1219999999998 1377.196 1206.613 1310.44 1386.897 1218.973 1517.333 1136.562 1634.855 1064.364 1753.976 1025.097 1892.037 980.913 2047.385 917.982 2214.489 978.05 2364.412 1038.6799999999998 2515.737 1204.2179999999998 2588.2110000000002 1340.108 2678.2619999999997 1477.94 2769.6 1610.68 2896.302 1776 2893.192" fill="#f9fcff"></path></g><defs><mask id="SvgjsMask1065"><rect width="1776" height="2000" fill="#ffffff"></rect></mask></defs></svg>