<svg xmlns="http://www.w3.org/2000/svg" version="1.1" xmlns:xlink="http://www.w3.org/1999/xlink" xmlns:svgjs="http://svgjs.dev/svgjs" width="1440" height="573" preserveAspectRatio="none" viewBox="0 0 1440 573"><g mask="url(&quot;#SvgjsMask1027&quot;)" fill="none"><rect width="1440" height="573" x="0" y="0" fill="rgba(218, 235, 253, 1)"></rect><path d="M0,472.735C88.15,466.289,176.271,434.78,240.178,373.724C299.278,317.261,294.756,224.156,334.783,152.89C380.054,72.287,488.839,22.046,489.623,-70.397C490.4,-162.024,397.894,-223.539,338.569,-293.371C278.629,-363.927,225.794,-443.178,141.123,-480.62C50.251,-520.804,-58.917,-549.999,-149.517,-509.207C-238.931,-468.949,-267.921,-359.503,-316.752,-274.467C-356.458,-205.322,-402.968,-138.255,-408.22,-58.693C-413.27,17.809,-367.82,84.404,-345.278,157.683C-318.702,244.079,-330.637,349.655,-263.865,410.582C-195.735,472.748,-91.984,479.461,0,472.735" fill="#81bbf8"></path><path d="M1440 1221.6779999999999C1566.391 1216.23 1692.453 1199.585 1801.842 1136.037 1914.3890000000001 1070.654 2018.1480000000001 979.874 2065.156 858.499 2111.1059999999998 739.857 2091.994 606.1610000000001 2054.102 484.706 2019.914 375.124 1944.656 286.992 1862.003 207.33300000000003 1785.321 133.42899999999997 1698.045 72.185 1595.66 42.87099999999998 1493.735 13.688999999999965 1387.93 20.701999999999998 1284.042 41.85699999999997 1172.346 64.60199999999998 1043.682 79.02199999999999 974.236 169.413 905.163 259.318 961.098 390.374 932.079 499.972 897.479 630.646 763.662 737.625 788.609 870.48 813.796 1004.613 937.4110000000001 1103.3490000000002 1057.541 1168.117 1173.194 1230.471 1308.731 1227.336 1440 1221.6779999999999" fill="#ffffff"></path></g><defs><mask id="SvgjsMask1027"><rect width="1440" height="573" fill="#ffffff"></rect></mask></defs></svg>