<svg xmlns="http://www.w3.org/2000/svg" version="1.1" xmlns:xlink="http://www.w3.org/1999/xlink" xmlns:svgjs="http://svgjs.dev/svgjs" width="1776" height="3500" preserveAspectRatio="none" viewBox="0 0 1776 3500"><g mask="url(&quot;#SvgjsMask1095&quot;)" fill="none"><rect width="1776" height="3500" x="0" y="0" fill="rgba(218, 235, 253, 1)"></rect><path d="M0,1237.826C239.214,1242.096,457.817,1147.065,679.77,1057.742C951.09,948.552,1271.052,896.156,1440.798,657.99C1618.782,408.266,1699.564,59.455,1597.331,-229.662C1497.215,-512.792,1155.505,-609.098,924.778,-801.324C737.277,-957.537,590.588,-1153.384,368.133,-1253.747C121.581,-1364.981,-153.006,-1481.161,-412.433,-1404.619C-671.793,-1328.097,-814.06,-1063.078,-985.869,-854.26C-1153.213,-650.87,-1316.778,-450.747,-1402.234,-201.611C-1501.737,88.478,-1673.694,429.242,-1516.431,692.531C-1356.297,960.627,-958.208,928.08,-664.35,1033.749C-441.846,1113.759,-236.414,1233.606,0,1237.826" fill="#a0ccfa"></path><path d="M1776 4977.975C2057.07 4984.993 2310.498 4848.648999999999 2562.1710000000003 4723.3060000000005 2842.464 4583.709 3185.136 4487.603 3324.066 4206.978 3463.507 3925.321 3402.3360000000002 3571.646 3274.459 3284.554 3160.377 3028.434 2870.3810000000003 2920.7 2665.752 2729.026 2487.383 2561.949 2356.138 2359.6639999999998 2148.8469999999998 2230.201 1883.09 2064.223 1594.483 1771.235 1298.978 1875.411 999.075 1981.138 988.007 2408.257 842.188 2690.8469999999998 733.5029999999999 2901.4719999999998 583.5350000000001 3089.1059999999998 551.517 3323.946 519.643 3557.728 586.512 3785.14 662.537 4008.501 746.1110000000001 4254.04 819.047 4514.346 1014.662 4684.665 1224.012 4866.942 1498.503 4971.046 1776 4977.975" fill="#ffffff"></path></g><defs><mask id="SvgjsMask1095"><rect width="1776" height="3500" fill="#ffffff"></rect></mask></defs></svg>